<svg width="34" height="40" viewBox="0 0 34 40" fill="none" xmlns="http://www.w3.org/2000/svg">
<g id="Group 35515">
<path id="Rectangle 82" d="M2.43359 1.89062H32.2439V23.2032C32.2439 31.4351 25.5706 38.1084 17.3388 38.1084C9.10686 38.1084 2.43359 31.4351 2.43359 23.2032V1.89062Z" stroke="#FFCF4A" stroke-width="3"/>
<rect id="Rectangle 78" x="10.3945" y="6.50781" width="2.79616" height="10.2388" fill="#B034F7"/>
<rect id="Rectangle 79" x="15.6523" y="19.3867" width="2.63868" height="7.72388" transform="rotate(90 15.6523 19.3867)" fill="#FFCF4A"/>
<rect id="Rectangle 80" x="15.6523" y="23.168" width="2.63868" height="7.72388" transform="rotate(90 15.6523 23.168)" fill="#B034F7"/>
<rect id="Rectangle 81" x="15.6523" y="26.9492" width="2.63868" height="7.72388" transform="rotate(90 15.6523 26.9492)" fill="#FFCF4A"/>
<path id="Polygon 5" d="M23.1346 19.3867L28.5928 29.4516H17.6764L23.1346 19.3867Z" fill="#B034F7"/>
<path id="Union" fill-rule="evenodd" clip-rule="evenodd" d="M23.4585 9.74961C22.9481 9.26798 22.2636 8.98841 21.5446 8.96547H19.418V6.54841H21.4485V6.54688C22.8322 6.54688 24.1612 7.04769 25.1634 7.94296C25.1992 7.97497 25.2346 8.00748 25.2696 8.04049C25.5614 8.31586 25.8164 8.61948 26.0316 8.94454C26.5637 9.74839 26.8524 10.6834 26.8524 11.6464C26.8524 12.6094 26.5637 13.5444 26.0316 14.3482C25.8164 14.6733 25.5614 14.9769 25.2696 15.2523C25.2346 15.2853 25.1992 15.3178 25.1634 15.3498C24.1914 16.2182 22.9118 16.7154 21.5732 16.7446V16.7462H19.418V14.3292H21.4485V14.3289C22.2024 14.3289 22.9254 14.0462 23.4585 13.5432C23.4936 13.51 23.5277 13.4761 23.5608 13.4415C24.0297 12.9501 24.291 12.311 24.291 11.6464C24.291 10.9818 24.0297 10.3427 23.5608 9.85131C23.5277 9.81666 23.4936 9.78275 23.4585 9.74961Z" fill="#B034F7"/>
</g>
</svg>
